<svg aria-hidden="true" style="width:0;height:0;position:absolute;overflow:hidden" xmlns="http://www.w3.org/2000/svg"><defs><symbol id="icon-twitter" viewBox="0 0 26 28"><path d="M25.312 6.375a10.85 10.85 0 0 1-2.531 2.609c.016.219.016.438.016.656 0 6.672-5.078 14.359-14.359 14.359-2.859 0-5.516-.828-7.75-2.266.406.047.797.063 1.219.063 2.359 0 4.531-.797 6.266-2.156a5.056 5.056 0 0 1-4.719-3.5c.313.047.625.078.953.078.453 0 .906-.063 1.328-.172a5.048 5.048 0 0 1-4.047-4.953v-.063a5.093 5.093 0 0 0 2.281.641 5.044 5.044 0 0 1-2.25-4.203c0-.938.25-1.797.688-2.547a14.344 14.344 0 0 0 10.406 5.281 5.708 5.708 0 0 1-.125-1.156 5.045 5.045 0 0 1 5.047-5.047 5.03 5.03 0 0 1 3.687 1.594 9.943 9.943 0 0 0 3.203-1.219 5.032 5.032 0 0 1-2.219 2.781c1.016-.109 2-.391 2.906-.781z"/></symbol><symbol id="icon-facebook" viewBox="0 0 16 28"><path d="M14.984.187v4.125h-2.453c-1.922 0-2.281.922-2.281 2.25v2.953h4.578l-.609 4.625H10.25v11.859H5.469V14.14H1.485V9.515h3.984V6.109C5.469 2.156 7.891 0 11.422 0c1.687 0 3.141.125 3.563.188z"/></symbol><symbol id="icon-google-plus" viewBox="0 0 36 28"><path d="M22.453 14.266c0 6.547-4.391 11.188-11 11.188C5.125 25.454 0 20.329 0 14.001S5.125 2.548 11.453 2.548c3.094 0 5.672 1.125 7.672 3l-3.109 2.984c-.844-.812-2.328-1.766-4.562-1.766C7.548 6.766 4.36 10 4.36 14s3.187 7.234 7.094 7.234c4.531 0 6.234-3.266 6.5-4.937h-6.5v-3.938h10.813c.109.578.187 1.156.187 1.906zM36 12.359v3.281h-3.266v3.266h-3.281V15.64h-3.266v-3.281h3.266V9.093h3.281v3.266H36z"/></symbol><symbol id="icon-caret-right" viewBox="0 0 9 28"><path d="M9 14a.99.99 0 0 1-.297.703l-7 7A.996.996 0 0 1 1 22c-.547 0-1-.453-1-1V7c0-.547.453-1 1-1a.99.99 0 0 1 .703.297l7 7A.996.996 0 0 1 9 14z"/></symbol><symbol id="icon-linkedin" viewBox="0 0 24 28"><path d="M5.453 9.766V25.25H.297V9.766h5.156zm.328-4.782c.016 1.484-1.109 2.672-2.906 2.672h-.031C1.11 7.656 0 6.468 0 4.984c0-1.516 1.156-2.672 2.906-2.672 1.766 0 2.859 1.156 2.875 2.672zM24 16.375v8.875h-5.141v-8.281c0-2.078-.75-3.5-2.609-3.5-1.422 0-2.266.953-2.641 1.875-.125.344-.172.797-.172 1.266v8.641H8.296c.063-14.031 0-15.484 0-15.484h5.141v2.25h-.031c.672-1.062 1.891-2.609 4.672-2.609 3.391 0 5.922 2.219 5.922 6.969z"/></symbol><symbol id="icon-fullogo-footer" viewBox="0 0 200 32"><path fill="#fff" style="fill:var(--color1,#fff)" d="M58.144 25.105h4.577l3.127-9.382 3.241 9.382h4.577l6.568-17.457h-5.487l-3.44 9.723-3.355-9.723h-4.236l-3.184 9.667-3.469-9.667h-5.572l6.653 17.457zm32.355.426c3.668 0 6.624-1.82 8.16-4.549l-.335-.203c-1.21-.727-3.788-2.213-3.788-2.213l-.158.205c-.883 1.125-1.988 2.212-3.623 2.212-1.99 0-3.639-.995-4.094-3.071h12.282c.01-.133.013-.246.013-.355 0-.101-.003-.198-.006-.301a68.053 68.053 0 0 1-.006-.245l-.001-.151c0-6.226-3.554-9.553-8.586-9.553-5.146 0-8.927 3.81-8.927 9.098 0 5.857 3.696 9.126 9.07 9.126zM90.3 11.742c1.649 0 2.559.796 3.184 2.474H86.86c.654-1.621 1.649-2.474 3.44-2.474zm11.486 13.363h5.175v-1.82c1.62 1.592 3.326 2.246 5.629 2.246 4.918 0 8.017-4.265 8.017-9.126 0-4.748-3.042-9.098-8.188-9.098-3.042 0-5.373 1.99-5.373 1.99v-5.97h-5.26v21.778zm9.439-12.908c2.388 0 4.123 1.877 4.123 4.094 0 2.473-1.308 4.549-3.895 4.549-2.758 0-4.549-1.734-4.549-4.435 0-2.53 1.848-4.208 4.321-4.208zm11.373 4.265c0 4.861 4.094 9.24 9.439 9.24 5.686 0 9.524-4.009 9.524-9.325 0-5.26-4.122-9.069-9.41-9.069-5.374 0-9.553 3.923-9.553 9.155zm9.524-4.18c2.474 0 4.179 1.763 4.179 4.009 0 2.729-1.592 4.407-4.207 4.407-2.417 0-4.208-1.82-4.208-4.151 0-2.388 1.677-4.265 4.236-4.265zm17.997 12.823h4.72l6.851-17.457h-5.572l-3.582 10.207-3.81-10.207h-5.914l7.307 17.457zm18.963 0V7.648h-5.288v17.457h5.288zm-5.799-21.892c0 1.791 1.393 3.184 3.127 3.184 1.819 0 3.27-1.45 3.27-3.241 0-1.763-1.451-3.156-3.213-3.156-1.763 0-3.184 1.45-3.184 3.213zm8.643 13.249c0 4.861 4.094 9.24 9.439 9.24 5.686 0 9.524-4.009 9.524-9.325 0-5.26-4.122-9.069-9.411-9.069-5.373 0-9.552 3.923-9.552 9.155zm9.524-4.18c2.473 0 4.179 1.763 4.179 4.009 0 2.729-1.592 4.407-4.207 4.407-2.417 0-4.208-1.82-4.208-4.151 0-2.388 1.677-4.265 4.236-4.265z"/><path fill="#edb91b" style="fill:var(--color2,#edb91b)" d="M196.06 18.8c1.79 0 3.27 1.48 3.27 3.27s-1.48 3.27-3.27 3.27-3.27-1.48-3.27-3.27 1.48-3.27 3.27-3.27zM28.5 26.82c-1.01 1.68-3.45 1.68-4.46 0L9.94 3.32H38c2.03 0 3.28 2.2 2.23 3.94L28.5 26.82z"/><path fill="#fff" style="fill:var(--color1,#fff)" d="m18.56 26.82 14.1-23.5H4.59c-2.02 0-3.27 2.2-2.23 3.94l11.73 19.56c1.02 1.68 3.46 1.68 4.47 0z"/><path fill="#eef0e7" style="fill:var(--color3,#eef0e7)" d="M9.94 3.32h22.72L21.3 22.25 9.94 3.32z"/></symbol><symbol id="icon-logo-svg" viewBox="0 0 50 32"><path fill="#ffd723" style="fill:var(--color1,#ffd723)" d="M33.509 26.953c-1.198 1.984-4.069 1.984-5.257 0L11.685-.668h32.987c2.377 0 3.849 2.587 2.624 4.635L33.509 26.952z"/><path fill="#fff" style="fill:var(--color2,#fff)" d="M21.815 26.953 38.391-.668H5.404c-2.377 0-3.849 2.587-2.624 4.635l13.787 22.985c1.189 1.984 4.059 1.984 5.248 0z"/><path fill="#f6f6f6" style="fill:var(--color3,#f6f6f6)" d="M11.685-.667h26.706L25.042 21.587 11.684-.667z"/></symbol><symbol id="icon-logo-header" viewBox="0 0 200 32"><path fill="#fff" style="fill:var(--color1,#fff)" d="M58.144 25.105h4.577l3.127-9.382 3.241 9.382h4.577l6.568-17.457h-5.487l-3.44 9.723-3.355-9.723h-4.236l-3.184 9.667-3.469-9.667h-5.572l6.653 17.457zm32.355.426c3.668 0 6.624-1.82 8.16-4.549l-.335-.203c-1.21-.727-3.788-2.213-3.788-2.213l-.158.205c-.883 1.125-1.988 2.212-3.623 2.212-1.99 0-3.639-.995-4.094-3.071h12.282c.01-.133.013-.246.013-.355 0-.101-.003-.198-.006-.301a68.053 68.053 0 0 1-.006-.245l-.001-.151c0-6.226-3.554-9.553-8.586-9.553-5.146 0-8.927 3.81-8.927 9.098 0 5.857 3.696 9.126 9.07 9.126zM90.3 11.742c1.649 0 2.559.796 3.184 2.474H86.86c.654-1.621 1.649-2.474 3.44-2.474zm11.486 13.363h5.175v-1.82c1.62 1.592 3.326 2.246 5.629 2.246 4.918 0 8.017-4.265 8.017-9.126 0-4.748-3.042-9.098-8.188-9.098-3.042 0-5.373 1.99-5.373 1.99v-5.97h-5.26v21.778zm9.439-12.908c2.388 0 4.123 1.877 4.123 4.094 0 2.473-1.308 4.549-3.895 4.549-2.758 0-4.549-1.734-4.549-4.435 0-2.53 1.848-4.208 4.321-4.208zm11.373 4.265c0 4.861 4.094 9.24 9.439 9.24 5.686 0 9.524-4.009 9.524-9.325 0-5.26-4.122-9.069-9.41-9.069-5.374 0-9.553 3.923-9.553 9.155zm9.524-4.18c2.474 0 4.179 1.763 4.179 4.009 0 2.729-1.592 4.407-4.207 4.407-2.417 0-4.208-1.82-4.208-4.151 0-2.388 1.677-4.265 4.236-4.265zm17.997 12.823h4.72l6.851-17.457h-5.572l-3.582 10.207-3.81-10.207h-5.914l7.307 17.457zm18.963 0V7.648h-5.288v17.457h5.288zm-5.799-21.892c0 1.791 1.393 3.184 3.127 3.184 1.819 0 3.27-1.45 3.27-3.241 0-1.763-1.451-3.156-3.213-3.156-1.763 0-3.184 1.45-3.184 3.213zm8.643 13.249c0 4.861 4.094 9.24 9.439 9.24 5.686 0 9.524-4.009 9.524-9.325 0-5.26-4.122-9.069-9.411-9.069-5.373 0-9.552 3.923-9.552 9.155zm9.524-4.18c2.473 0 4.179 1.763 4.179 4.009 0 2.729-1.592 4.407-4.207 4.407-2.417 0-4.208-1.82-4.208-4.151 0-2.388 1.677-4.265 4.236-4.265z"/><path fill="#fff" style="fill:var(--color2,#fff)" d="M196.06 18.8c1.79 0 3.27 1.48 3.27 3.27s-1.48 3.27-3.27 3.27-3.27-1.48-3.27-3.27 1.48-3.27 3.27-3.27z"/><path fill="#edb91b" style="fill:var(--color2,#edb91b)" d="M28.5 26.82c-1.01 1.68-3.45 1.68-4.46 0L9.94 3.32H38c2.03 0 3.28 2.2 2.23 3.94L28.5 26.82z"/><path fill="#fff" style="fill:var(--color1,#fff)" d="m18.56 26.82 14.1-23.5H4.59c-2.02 0-3.27 2.2-2.23 3.94l11.73 19.56c1.02 1.68 3.46 1.68 4.47 0z"/><path fill="#eef0e7" style="fill:var(--color3,#eef0e7)" d="M9.94 3.32h22.72L21.3 22.25 9.94 3.32z"/></symbol><symbol id="icon-burger-svg" viewBox="0 0 44 32"><path d="M0 0v4.431h44.308V0H0zm0 13.292v4.431h44.308v-4.431H0zm0 17.724v-4.431h44.308v4.431H0z"/></symbol></defs></svg>