<svg aria-hidden="true" style="position: absolute; width: 0; height: 0; overflow: hidden;" version="1.1" xmlns="http://www.w3.org/2000/svg" xmlns:xlink="http://www.w3.org/1999/xlink">
<defs>
<symbol id="icon-twitter" viewBox="0 0 26 28">
<path d="M25.312 6.375c-0.688 1-1.547 1.891-2.531 2.609 0.016 0.219 0.016 0.438 0.016 0.656 0 6.672-5.078 14.359-14.359 14.359-2.859 0-5.516-0.828-7.75-2.266 0.406 0.047 0.797 0.063 1.219 0.063 2.359 0 4.531-0.797 6.266-2.156-2.219-0.047-4.078-1.5-4.719-3.5 0.313 0.047 0.625 0.078 0.953 0.078 0.453 0 0.906-0.063 1.328-0.172-2.312-0.469-4.047-2.5-4.047-4.953v-0.063c0.672 0.375 1.453 0.609 2.281 0.641-1.359-0.906-2.25-2.453-2.25-4.203 0-0.938 0.25-1.797 0.688-2.547 2.484 3.062 6.219 5.063 10.406 5.281-0.078-0.375-0.125-0.766-0.125-1.156 0-2.781 2.25-5.047 5.047-5.047 1.453 0 2.766 0.609 3.687 1.594 1.141-0.219 2.234-0.641 3.203-1.219-0.375 1.172-1.172 2.156-2.219 2.781 1.016-0.109 2-0.391 2.906-0.781z"></path>
</symbol>
<symbol id="icon-facebook" viewBox="0 0 16 28">
<path d="M14.984 0.187v4.125h-2.453c-1.922 0-2.281 0.922-2.281 2.25v2.953h4.578l-0.609 4.625h-3.969v11.859h-4.781v-11.859h-3.984v-4.625h3.984v-3.406c0-3.953 2.422-6.109 5.953-6.109 1.687 0 3.141 0.125 3.563 0.188z"></path>
</symbol>
<symbol id="icon-google-plus" viewBox="0 0 36 28">
<path d="M22.453 14.266c0 6.547-4.391 11.188-11 11.188-6.328 0-11.453-5.125-11.453-11.453s5.125-11.453 11.453-11.453c3.094 0 5.672 1.125 7.672 3l-3.109 2.984c-0.844-0.812-2.328-1.766-4.562-1.766-3.906 0-7.094 3.234-7.094 7.234s3.187 7.234 7.094 7.234c4.531 0 6.234-3.266 6.5-4.937h-6.5v-3.938h10.813c0.109 0.578 0.187 1.156 0.187 1.906zM36 12.359v3.281h-3.266v3.266h-3.281v-3.266h-3.266v-3.281h3.266v-3.266h3.281v3.266h3.266z"></path>
</symbol>
<symbol id="icon-caret-right" viewBox="0 0 9 28">
<path d="M9 14c0 0.266-0.109 0.516-0.297 0.703l-7 7c-0.187 0.187-0.438 0.297-0.703 0.297-0.547 0-1-0.453-1-1v-14c0-0.547 0.453-1 1-1 0.266 0 0.516 0.109 0.703 0.297l7 7c0.187 0.187 0.297 0.438 0.297 0.703z"></path>
</symbol>
<symbol id="icon-linkedin" viewBox="0 0 24 28">
<path d="M5.453 9.766v15.484h-5.156v-15.484h5.156zM5.781 4.984c0.016 1.484-1.109 2.672-2.906 2.672v0h-0.031c-1.734 0-2.844-1.188-2.844-2.672 0-1.516 1.156-2.672 2.906-2.672 1.766 0 2.859 1.156 2.875 2.672zM24 16.375v8.875h-5.141v-8.281c0-2.078-0.75-3.5-2.609-3.5-1.422 0-2.266 0.953-2.641 1.875-0.125 0.344-0.172 0.797-0.172 1.266v8.641h-5.141c0.063-14.031 0-15.484 0-15.484h5.141v2.25h-0.031c0.672-1.062 1.891-2.609 4.672-2.609 3.391 0 5.922 2.219 5.922 6.969z"></path>
</symbol>
<symbol id="icon-fullogo-footer" viewBox="0 0 200 32">
<path fill="#fff" style="fill: var(--color1, #fff)" d="M58.144 25.105h4.577l3.127-9.382 3.241 9.382h4.577l6.568-17.457h-5.487l-3.44 9.723-3.355-9.723h-4.236l-3.184 9.667-3.469-9.667h-5.572l6.653 17.457zM90.499 25.531c3.668 0 6.624-1.82 8.16-4.549l-0.335-0.203c-1.21-0.727-3.788-2.213-3.788-2.213l-0.158 0.205c-0.883 1.125-1.988 2.212-3.623 2.212-1.99 0-3.639-0.995-4.094-3.071h12.282c0.010-0.133 0.013-0.246 0.013-0.355 0-0.101-0.003-0.198-0.006-0.301-0.002-0.076-0.004-0.157-0.006-0.245l-0.001-0.151c0-6.226-3.554-9.553-8.586-9.553-5.146 0-8.927 3.81-8.927 9.098 0 5.857 3.696 9.126 9.070 9.126zM90.3 11.742c1.649 0 2.559 0.796 3.184 2.474h-6.624c0.654-1.621 1.649-2.474 3.44-2.474zM101.786 25.105h5.175v-1.82c1.62 1.592 3.326 2.246 5.629 2.246 4.918 0 8.017-4.265 8.017-9.126 0-4.748-3.042-9.098-8.188-9.098-3.042 0-5.373 1.99-5.373 1.99v-5.97h-5.26v21.778zM111.225 12.197c2.388 0 4.123 1.877 4.123 4.094 0 2.473-1.308 4.549-3.895 4.549-2.758 0-4.549-1.734-4.549-4.435 0-2.53 1.848-4.208 4.321-4.208zM122.598 16.462c0 4.861 4.094 9.24 9.439 9.24 5.686 0 9.524-4.009 9.524-9.325 0-5.26-4.122-9.069-9.41-9.069-5.374 0-9.553 3.923-9.553 9.155zM132.122 12.282c2.474 0 4.179 1.763 4.179 4.009 0 2.729-1.592 4.407-4.207 4.407-2.417 0-4.208-1.82-4.208-4.151 0-2.388 1.677-4.265 4.236-4.265zM150.119 25.105h4.72l6.851-17.457h-5.572l-3.582 10.207-3.81-10.207h-5.914l7.307 17.457zM169.082 25.105v-17.457h-5.288v17.457h5.288zM163.283 3.213c0 1.791 1.393 3.184 3.127 3.184 1.819 0 3.27-1.45 3.27-3.241 0-1.763-1.451-3.156-3.213-3.156-1.763 0-3.184 1.45-3.184 3.213zM171.926 16.462c0 4.861 4.094 9.24 9.439 9.24 5.686 0 9.524-4.009 9.524-9.325 0-5.26-4.122-9.069-9.411-9.069-5.373 0-9.552 3.923-9.552 9.155zM181.45 12.282c2.473 0 4.179 1.763 4.179 4.009 0 2.729-1.592 4.407-4.207 4.407-2.417 0-4.208-1.82-4.208-4.151 0-2.388 1.677-4.265 4.236-4.265z"></path>
<path fill="#edb91b" style="fill: var(--color2, #edb91b)" d="M196.060 18.8c1.79 0 3.27 1.48 3.27 3.27s-1.48 3.27-3.27 3.27c-1.79 0-3.27-1.48-3.27-3.27s1.48-3.27 3.27-3.27z"></path>
<path fill="#edb91b" style="fill: var(--color2, #edb91b)" d="M28.5 26.82c-1.010 1.68-3.45 1.68-4.46 0l-14.1-23.5h28.060c2.030 0 3.28 2.2 2.23 3.94l-11.73 19.56z"></path>
<path fill="#fff" style="fill: var(--color1, #fff)" d="M18.56 26.82l14.1-23.5h-28.070c-2.020 0-3.27 2.2-2.23 3.94l11.73 19.56c1.020 1.68 3.46 1.68 4.47 0z"></path>
<path fill="#eef0e7" style="fill: var(--color3, #eef0e7)" d="M9.94 3.32h22.72l-11.36 18.93-11.36-18.93z"></path>
</symbol>
<symbol id="icon-logo-svg" viewBox="0 0 50 32">
<path fill="#ffd723" style="fill: var(--color1, #ffd723)" d="M33.509 26.953c-1.198 1.984-4.069 1.984-5.257 0l-16.567-27.621h32.987c2.377 0 3.849 2.587 2.624 4.635l-13.787 22.985z"></path>
<path fill="#fff" style="fill: var(--color2, #fff)" d="M21.815 26.953l16.576-27.621h-32.987c-2.377 0-3.849 2.587-2.624 4.635l13.787 22.985c1.189 1.984 4.059 1.984 5.248 0z"></path>
<path fill="#f6f6f6" style="fill: var(--color3, #f6f6f6)" d="M11.685-0.667h26.706l-13.349 22.254-13.358-22.254z"></path>
</symbol>
 <symbol id="icon-logo-header" viewBox="0 0 200 32">
 <path fill="#fff" style="fill: var(--color1, #fff)"
                d="M58.144 25.105h4.577l3.127-9.382 3.241 9.382h4.577l6.568-17.457h-5.487l-3.44 9.723-3.355-9.723h-4.236l-3.184 9.667-3.469-9.667h-5.572l6.653 17.457zM90.499 25.531c3.668 0 6.624-1.82 8.16-4.549l-0.335-0.203c-1.21-0.727-3.788-2.213-3.788-2.213l-0.158 0.205c-0.883 1.125-1.988 2.212-3.623 2.212-1.99 0-3.639-0.995-4.094-3.071h12.282c0.010-0.133 0.013-0.246 0.013-0.355 0-0.101-0.003-0.198-0.006-0.301-0.002-0.076-0.004-0.157-0.006-0.245l-0.001-0.151c0-6.226-3.554-9.553-8.586-9.553-5.146 0-8.927 3.81-8.927 9.098 0 5.857 3.696 9.126 9.070 9.126zM90.3 11.742c1.649 0 2.559 0.796 3.184 2.474h-6.624c0.654-1.621 1.649-2.474 3.44-2.474zM101.786 25.105h5.175v-1.82c1.62 1.592 3.326 2.246 5.629 2.246 4.918 0 8.017-4.265 8.017-9.126 0-4.748-3.042-9.098-8.188-9.098-3.042 0-5.373 1.99-5.373 1.99v-5.97h-5.26v21.778zM111.225 12.197c2.388 0 4.123 1.877 4.123 4.094 0 2.473-1.308 4.549-3.895 4.549-2.758 0-4.549-1.734-4.549-4.435 0-2.53 1.848-4.208 4.321-4.208zM122.598 16.462c0 4.861 4.094 9.24 9.439 9.24 5.686 0 9.524-4.009 9.524-9.325 0-5.26-4.122-9.069-9.41-9.069-5.374 0-9.553 3.923-9.553 9.155zM132.122 12.282c2.474 0 4.179 1.763 4.179 4.009 0 2.729-1.592 4.407-4.207 4.407-2.417 0-4.208-1.82-4.208-4.151 0-2.388 1.677-4.265 4.236-4.265zM150.119 25.105h4.72l6.851-17.457h-5.572l-3.582 10.207-3.81-10.207h-5.914l7.307 17.457zM169.082 25.105v-17.457h-5.288v17.457h5.288zM163.283 3.213c0 1.791 1.393 3.184 3.127 3.184 1.819 0 3.27-1.45 3.27-3.241 0-1.763-1.451-3.156-3.213-3.156-1.763 0-3.184 1.45-3.184 3.213zM171.926 16.462c0 4.861 4.094 9.24 9.439 9.24 5.686 0 9.524-4.009 9.524-9.325 0-5.26-4.122-9.069-9.411-9.069-5.373 0-9.552 3.923-9.552 9.155zM181.45 12.282c2.473 0 4.179 1.763 4.179 4.009 0 2.729-1.592 4.407-4.207 4.407-2.417 0-4.208-1.82-4.208-4.151 0-2.388 1.677-4.265 4.236-4.265z"></path>
            <path fill="#fff" style="fill: var(--color2, #fff)"
                d="M196.060 18.8c1.79 0 3.27 1.48 3.27 3.27s-1.48 3.27-3.27 3.27c-1.79 0-3.27-1.48-3.27-3.27s1.48-3.27 3.27-3.27z"></path>
            <path fill="#edb91b" style="fill: var(--color2, #edb91b)"
                d="M28.5 26.82c-1.010 1.68-3.45 1.68-4.46 0l-14.1-23.5h28.060c2.030 0 3.28 2.2 2.23 3.94l-11.73 19.56z"></path>
            <path fill="#fff" style="fill: var(--color1, #fff)"
                d="M18.56 26.82l14.1-23.5h-28.070c-2.020 0-3.27 2.2-2.23 3.94l11.73 19.56c1.020 1.68 3.46 1.68 4.47 0z"></path>
            <path fill="#eef0e7" style="fill: var(--color3, #eef0e7)"
                d="M9.94 3.32h22.72l-11.36 18.93-11.36-18.93z"></path>
        </symbol>
<symbol id="icon-burger-svg" viewBox="0 0 44 32">
<path d="M0 0v4.431h44.308v-4.431h-44.308zM0 13.292v4.431h44.308v-4.431h-44.308zM0 31.016v-4.431h44.308v4.431h-44.308z"></path>
</symbol>
</defs>
</svg>